<mxfile host="Electron" modified="2024-06-13T11:02:07.821Z" agent="Mozilla/5.0 (Windows NT 10.0; Win64; x64) AppleWebKit/537.36 (KHTML, like Gecko) draw.io/24.1.0 Chrome/120.0.6099.109 Electron/28.1.0 Safari/537.36" etag="5T_2rbgbKBtrvZ0bcjUt" version="24.1.0" type="device">
  <diagram name="Page-1" id="TKcbys-8-eejvCyXCADx">
    <mxGraphModel dx="691" dy="399" grid="1" gridSize="10" guides="1" tooltips="1" connect="1" arrows="1" fold="1" page="1" pageScale="1" pageWidth="2336" pageHeight="1654" math="0" shadow="0">
      <root>
        <mxCell id="0" />
        <mxCell id="1" parent="0" />
        <mxCell id="Qqp3Ts9HwSAfRc8SLj8j-1" value="" style="ellipse;whiteSpace=wrap;html=1;aspect=fixed;" parent="1" vertex="1">
          <mxGeometry x="657.5" y="120" width="60" height="60" as="geometry" />
        </mxCell>
        <mxCell id="Qqp3Ts9HwSAfRc8SLj8j-2" value="&lt;font style=&quot;font-size: 33px;&quot;&gt;User&lt;/font&gt;" style="text;html=1;align=center;verticalAlign=middle;whiteSpace=wrap;rounded=0;strokeWidth=2;" parent="1" vertex="1">
          <mxGeometry x="646.25" y="60" width="82.5" height="60" as="geometry" />
        </mxCell>
        <mxCell id="Qqp3Ts9HwSAfRc8SLj8j-4" value="" style="endArrow=classic;html=1;rounded=0;exitX=0.5;exitY=1;exitDx=0;exitDy=0;" parent="1" source="Qqp3Ts9HwSAfRc8SLj8j-1" edge="1">
          <mxGeometry width="50" height="50" relative="1" as="geometry">
            <mxPoint x="678.75" y="240" as="sourcePoint" />
            <mxPoint x="687.5" y="220" as="targetPoint" />
          </mxGeometry>
        </mxCell>
        <mxCell id="Qqp3Ts9HwSAfRc8SLj8j-5" value="&lt;font style=&quot;font-size: 20px;&quot;&gt;Lands on Index&lt;/font&gt;" style="rounded=1;whiteSpace=wrap;html=1;" parent="1" vertex="1">
          <mxGeometry x="582.5" y="220" width="210" height="50" as="geometry" />
        </mxCell>
        <mxCell id="Qqp3Ts9HwSAfRc8SLj8j-8" value="" style="endArrow=classic;html=1;rounded=0;exitX=0.5;exitY=1;exitDx=0;exitDy=0;entryX=0.311;entryY=0.031;entryDx=0;entryDy=0;entryPerimeter=0;" parent="1" target="Qqp3Ts9HwSAfRc8SLj8j-9" edge="1">
          <mxGeometry width="50" height="50" relative="1" as="geometry">
            <mxPoint x="630.1700000000001" y="270" as="sourcePoint" />
            <mxPoint x="630.002" y="370" as="targetPoint" />
          </mxGeometry>
        </mxCell>
        <mxCell id="Qqp3Ts9HwSAfRc8SLj8j-9" value="&lt;font style=&quot;font-size: 17px;&quot;&gt;Authenticates&lt;/font&gt;" style="rounded=1;whiteSpace=wrap;html=1;" parent="1" vertex="1">
          <mxGeometry x="571.25" y="470" width="192.5" height="50" as="geometry" />
        </mxCell>
        <mxCell id="Qqp3Ts9HwSAfRc8SLj8j-10" value="&lt;font style=&quot;font-size: 16px;&quot;&gt;Try watch movie through Library Page&lt;/font&gt;" style="rounded=1;whiteSpace=wrap;html=1;" parent="1" vertex="1">
          <mxGeometry x="890" y="400" width="192.5" height="50" as="geometry" />
        </mxCell>
        <mxCell id="Qqp3Ts9HwSAfRc8SLj8j-11" value="" style="endArrow=classic;html=1;rounded=0;exitX=1;exitY=0.5;exitDx=0;exitDy=0;" parent="1" source="Qqp3Ts9HwSAfRc8SLj8j-5" edge="1">
          <mxGeometry width="50" height="50" relative="1" as="geometry">
            <mxPoint x="830" y="250" as="sourcePoint" />
            <mxPoint x="900" y="245" as="targetPoint" />
          </mxGeometry>
        </mxCell>
        <mxCell id="Qqp3Ts9HwSAfRc8SLj8j-12" value="&lt;span style=&quot;font-size: 16px;&quot;&gt;Access movie streaming view&lt;/span&gt;" style="rounded=1;whiteSpace=wrap;html=1;" parent="1" vertex="1">
          <mxGeometry x="600" y="790" width="130" height="50" as="geometry" />
        </mxCell>
        <mxCell id="Qqp3Ts9HwSAfRc8SLj8j-14" value="&lt;font style=&quot;font-size: 18px;&quot;&gt;Suceeds&lt;/font&gt;" style="text;html=1;align=center;verticalAlign=middle;whiteSpace=wrap;rounded=0;" parent="1" vertex="1">
          <mxGeometry x="1320" y="640" width="60" height="30" as="geometry" />
        </mxCell>
        <mxCell id="Qqp3Ts9HwSAfRc8SLj8j-15" value="&lt;font style=&quot;font-size: 18px;&quot;&gt;No&lt;/font&gt;" style="text;html=1;align=center;verticalAlign=middle;whiteSpace=wrap;rounded=0;" parent="1" vertex="1">
          <mxGeometry x="732.5" y="540" width="40" height="30" as="geometry" />
        </mxCell>
        <mxCell id="Qqp3Ts9HwSAfRc8SLj8j-16" value="" style="endArrow=classic;html=1;rounded=0;exitX=0.474;exitY=1.06;exitDx=0;exitDy=0;exitPerimeter=0;entryX=0.981;entryY=0.6;entryDx=0;entryDy=0;entryPerimeter=0;" parent="1" source="Qqp3Ts9HwSAfRc8SLj8j-10" target="Qqp3Ts9HwSAfRc8SLj8j-9" edge="1">
          <mxGeometry width="50" height="50" relative="1" as="geometry">
            <mxPoint x="942.75" y="360" as="sourcePoint" />
            <mxPoint x="990" y="430" as="targetPoint" />
            <Array as="points">
              <mxPoint x="980" y="500" />
            </Array>
          </mxGeometry>
        </mxCell>
        <mxCell id="Qqp3Ts9HwSAfRc8SLj8j-18" value="" style="endArrow=classic;html=1;rounded=0;exitX=0.5;exitY=1;exitDx=0;exitDy=0;entryX=0.526;entryY=-0.077;entryDx=0;entryDy=0;entryPerimeter=0;" parent="1" target="Qqp3Ts9HwSAfRc8SLj8j-12" edge="1">
          <mxGeometry width="50" height="50" relative="1" as="geometry">
            <mxPoint x="667.38" y="520" as="sourcePoint" />
            <mxPoint x="667.212" y="620" as="targetPoint" />
          </mxGeometry>
        </mxCell>
        <mxCell id="Qqp3Ts9HwSAfRc8SLj8j-19" value="" style="endArrow=classic;html=1;rounded=0;exitX=0.5;exitY=1;exitDx=0;exitDy=0;" parent="1" edge="1">
          <mxGeometry width="50" height="50" relative="1" as="geometry">
            <mxPoint x="730" y="520" as="sourcePoint" />
            <mxPoint x="810" y="580" as="targetPoint" />
            <Array as="points">
              <mxPoint x="730" y="580" />
            </Array>
          </mxGeometry>
        </mxCell>
        <mxCell id="Qqp3Ts9HwSAfRc8SLj8j-20" value="&lt;span style=&quot;font-size: 16px;&quot;&gt;Display Validation Error&lt;/span&gt;" style="rounded=1;whiteSpace=wrap;html=1;" parent="1" vertex="1">
          <mxGeometry x="810" y="550" width="192.5" height="50" as="geometry" />
        </mxCell>
        <mxCell id="Qqp3Ts9HwSAfRc8SLj8j-21" value="" style="endArrow=classic;html=1;rounded=0;exitX=0.5;exitY=1;exitDx=0;exitDy=0;entryX=0.464;entryY=-0.007;entryDx=0;entryDy=0;entryPerimeter=0;" parent="1" target="Qqp3Ts9HwSAfRc8SLj8j-22" edge="1">
          <mxGeometry width="50" height="50" relative="1" as="geometry">
            <mxPoint x="647.1600000000001" y="840" as="sourcePoint" />
            <mxPoint x="580.71" y="917.05" as="targetPoint" />
            <Array as="points">
              <mxPoint x="647" y="870" />
              <mxPoint x="580" y="870" />
            </Array>
          </mxGeometry>
        </mxCell>
        <mxCell id="Qqp3Ts9HwSAfRc8SLj8j-22" value="&lt;span style=&quot;font-size: 16px;&quot;&gt;CRUD Reviews&lt;/span&gt;" style="rounded=1;whiteSpace=wrap;html=1;" parent="1" vertex="1">
          <mxGeometry x="520" y="950" width="130" height="50" as="geometry" />
        </mxCell>
        <mxCell id="Qqp3Ts9HwSAfRc8SLj8j-23" value="&lt;span style=&quot;font-size: 16px;&quot;&gt;CRUD Interpretations&lt;/span&gt;" style="rounded=1;whiteSpace=wrap;html=1;" parent="1" vertex="1">
          <mxGeometry x="740" y="950" width="130" height="50" as="geometry" />
        </mxCell>
        <mxCell id="Qqp3Ts9HwSAfRc8SLj8j-24" value="" style="endArrow=classic;html=1;rounded=0;" parent="1" edge="1">
          <mxGeometry width="50" height="50" relative="1" as="geometry">
            <mxPoint x="699.5" y="841" as="sourcePoint" />
            <mxPoint x="772" y="950" as="targetPoint" />
            <Array as="points">
              <mxPoint x="699.5" y="870" />
              <mxPoint x="739.5" y="870" />
              <mxPoint x="772.5" y="870" />
            </Array>
          </mxGeometry>
        </mxCell>
        <mxCell id="Qqp3Ts9HwSAfRc8SLj8j-27" value="&lt;font style=&quot;font-size: 9px;&quot;&gt;Display Validation Error&lt;/font&gt;" style="rounded=1;whiteSpace=wrap;html=1;" parent="1" vertex="1">
          <mxGeometry x="626.25" y="890" width="102.5" height="27" as="geometry" />
        </mxCell>
        <mxCell id="Qqp3Ts9HwSAfRc8SLj8j-31" value="" style="endArrow=classic;html=1;rounded=0;entryX=0.337;entryY=0.975;entryDx=0;entryDy=0;entryPerimeter=0;exitX=0.969;exitY=-0.007;exitDx=0;exitDy=0;exitPerimeter=0;" parent="1" source="Qqp3Ts9HwSAfRc8SLj8j-22" target="Qqp3Ts9HwSAfRc8SLj8j-27" edge="1">
          <mxGeometry width="50" height="50" relative="1" as="geometry">
            <mxPoint x="680" y="990" as="sourcePoint" />
            <mxPoint x="730" y="940" as="targetPoint" />
          </mxGeometry>
        </mxCell>
        <mxCell id="Qqp3Ts9HwSAfRc8SLj8j-32" value="" style="endArrow=classic;html=1;rounded=0;entryX=0.779;entryY=1.025;entryDx=0;entryDy=0;entryPerimeter=0;exitX=0;exitY=0.107;exitDx=0;exitDy=0;exitPerimeter=0;" parent="1" source="Qqp3Ts9HwSAfRc8SLj8j-23" target="Qqp3Ts9HwSAfRc8SLj8j-27" edge="1">
          <mxGeometry width="50" height="50" relative="1" as="geometry">
            <mxPoint x="681.75" y="963" as="sourcePoint" />
            <mxPoint x="708.75" y="930" as="targetPoint" />
          </mxGeometry>
        </mxCell>
        <mxCell id="Qqp3Ts9HwSAfRc8SLj8j-33" value="&lt;font style=&quot;font-size: 18px;&quot;&gt;No&lt;/font&gt;" style="text;html=1;align=center;verticalAlign=middle;whiteSpace=wrap;rounded=0;" parent="1" vertex="1">
          <mxGeometry x="610" y="920" width="40" height="30" as="geometry" />
        </mxCell>
        <mxCell id="Qqp3Ts9HwSAfRc8SLj8j-34" value="&lt;font style=&quot;font-size: 18px;&quot;&gt;No&lt;/font&gt;" style="text;html=1;align=center;verticalAlign=middle;whiteSpace=wrap;rounded=0;" parent="1" vertex="1">
          <mxGeometry x="723.75" y="917" width="40" height="30" as="geometry" />
        </mxCell>
        <mxCell id="SnCNMXQEFfx5Mpp39tnm-11" value="" style="endArrow=classic;html=1;rounded=0;entryX=0.438;entryY=-0.029;entryDx=0;entryDy=0;entryPerimeter=0;" parent="1" target="SnCNMXQEFfx5Mpp39tnm-17" edge="1">
          <mxGeometry width="50" height="50" relative="1" as="geometry">
            <mxPoint x="670" y="690" as="sourcePoint" />
            <mxPoint x="960" y="720" as="targetPoint" />
            <Array as="points">
              <mxPoint x="960" y="690" />
            </Array>
          </mxGeometry>
        </mxCell>
        <mxCell id="SnCNMXQEFfx5Mpp39tnm-12" value="Succesful operation" style="rounded=1;whiteSpace=wrap;html=1;" parent="1" vertex="1">
          <mxGeometry x="575.63" y="1040" width="203.75" height="30" as="geometry" />
        </mxCell>
        <mxCell id="SnCNMXQEFfx5Mpp39tnm-13" value="" style="endArrow=classic;html=1;rounded=0;exitX=0.75;exitY=1;exitDx=0;exitDy=0;entryX=0.208;entryY=-0.052;entryDx=0;entryDy=0;entryPerimeter=0;" parent="1" source="Qqp3Ts9HwSAfRc8SLj8j-22" target="SnCNMXQEFfx5Mpp39tnm-12" edge="1">
          <mxGeometry width="50" height="50" relative="1" as="geometry">
            <mxPoint x="626.25" y="1030" as="sourcePoint" />
            <mxPoint x="676.25" y="980" as="targetPoint" />
          </mxGeometry>
        </mxCell>
        <mxCell id="SnCNMXQEFfx5Mpp39tnm-14" value="" style="endArrow=classic;html=1;rounded=0;exitX=0.75;exitY=1;exitDx=0;exitDy=0;entryX=0.208;entryY=-0.052;entryDx=0;entryDy=0;entryPerimeter=0;" parent="1" edge="1">
          <mxGeometry width="50" height="50" relative="1" as="geometry">
            <mxPoint x="763.35" y="1000" as="sourcePoint" />
            <mxPoint x="763.35" y="1038" as="targetPoint" />
          </mxGeometry>
        </mxCell>
        <mxCell id="SnCNMXQEFfx5Mpp39tnm-15" value="&lt;font style=&quot;font-size: 18px;&quot;&gt;Yes&lt;/font&gt;" style="text;html=1;align=center;verticalAlign=middle;whiteSpace=wrap;rounded=0;" parent="1" vertex="1">
          <mxGeometry x="562.5" y="1000" width="60" height="30" as="geometry" />
        </mxCell>
        <mxCell id="SnCNMXQEFfx5Mpp39tnm-16" value="&lt;font style=&quot;font-size: 18px;&quot;&gt;Yes&lt;/font&gt;" style="text;html=1;align=center;verticalAlign=middle;whiteSpace=wrap;rounded=0;" parent="1" vertex="1">
          <mxGeometry x="763.75" y="1000" width="60" height="30" as="geometry" />
        </mxCell>
        <mxCell id="SnCNMXQEFfx5Mpp39tnm-17" value="&lt;font style=&quot;font-size: 16px;&quot;&gt;Acccess Profile Page and See Usage Stats&lt;/font&gt;" style="rounded=1;whiteSpace=wrap;html=1;" parent="1" vertex="1">
          <mxGeometry x="890" y="740" width="160" height="50" as="geometry" />
        </mxCell>
        <mxCell id="SnCNMXQEFfx5Mpp39tnm-20" value="" style="endArrow=classic;html=1;rounded=0;entryX=1.009;entryY=0.799;entryDx=0;entryDy=0;entryPerimeter=0;" parent="1" target="Qqp3Ts9HwSAfRc8SLj8j-12" edge="1">
          <mxGeometry width="50" height="50" relative="1" as="geometry">
            <mxPoint x="780" y="1060" as="sourcePoint" />
            <mxPoint x="740" y="830" as="targetPoint" />
            <Array as="points">
              <mxPoint x="900" y="1060" />
              <mxPoint x="900" y="830" />
            </Array>
          </mxGeometry>
        </mxCell>
        <mxCell id="SnCNMXQEFfx5Mpp39tnm-19" value="&lt;font style=&quot;font-size: 16px;&quot;&gt;Access Settings Page and edit personal details&lt;/font&gt;" style="rounded=1;whiteSpace=wrap;html=1;" parent="1" vertex="1">
          <mxGeometry x="1120" y="670" width="190" height="50" as="geometry" />
        </mxCell>
        <mxCell id="SnCNMXQEFfx5Mpp39tnm-23" value="&lt;font style=&quot;font-size: 16px;&quot;&gt;Goes to Library Page with All Movies&lt;/font&gt;" style="rounded=1;whiteSpace=wrap;html=1;" parent="1" vertex="1">
          <mxGeometry x="900" y="210" width="192.5" height="50" as="geometry" />
        </mxCell>
        <mxCell id="SnCNMXQEFfx5Mpp39tnm-24" value="&lt;span style=&quot;font-size: 16px;&quot;&gt;Searches for a movie&lt;/span&gt;" style="rounded=1;whiteSpace=wrap;html=1;" parent="1" vertex="1">
          <mxGeometry x="1200" y="210" width="192.5" height="50" as="geometry" />
        </mxCell>
        <mxCell id="SnCNMXQEFfx5Mpp39tnm-25" value="" style="endArrow=classic;html=1;rounded=0;exitX=1;exitY=0.5;exitDx=0;exitDy=0;" parent="1" edge="1">
          <mxGeometry width="50" height="50" relative="1" as="geometry">
            <mxPoint x="1093" y="234.71" as="sourcePoint" />
            <mxPoint x="1200" y="234.71" as="targetPoint" />
          </mxGeometry>
        </mxCell>
        <mxCell id="SnCNMXQEFfx5Mpp39tnm-26" value="" style="endArrow=classic;html=1;rounded=0;exitX=0.458;exitY=1.008;exitDx=0;exitDy=0;entryX=0.512;entryY=-0.038;entryDx=0;entryDy=0;exitPerimeter=0;entryPerimeter=0;" parent="1" source="SnCNMXQEFfx5Mpp39tnm-23" target="Qqp3Ts9HwSAfRc8SLj8j-10" edge="1">
          <mxGeometry width="50" height="50" relative="1" as="geometry">
            <mxPoint x="990" y="260" as="sourcePoint" />
            <mxPoint x="1097" y="260" as="targetPoint" />
          </mxGeometry>
        </mxCell>
        <mxCell id="SnCNMXQEFfx5Mpp39tnm-27" value="" style="endArrow=classic;html=1;rounded=0;exitX=0.5;exitY=1;exitDx=0;exitDy=0;entryX=1.028;entryY=0.643;entryDx=0;entryDy=0;entryPerimeter=0;" parent="1" source="SnCNMXQEFfx5Mpp39tnm-24" target="Qqp3Ts9HwSAfRc8SLj8j-20" edge="1">
          <mxGeometry width="50" height="50" relative="1" as="geometry">
            <mxPoint x="1295.75" y="260" as="sourcePoint" />
            <mxPoint x="1297" y="580" as="targetPoint" />
            <Array as="points">
              <mxPoint x="1296" y="582" />
            </Array>
          </mxGeometry>
        </mxCell>
        <mxCell id="SnCNMXQEFfx5Mpp39tnm-28" value="&lt;font style=&quot;font-size: 18px;&quot;&gt;Fails&lt;/font&gt;" style="text;html=1;align=center;verticalAlign=middle;whiteSpace=wrap;rounded=0;" parent="1" vertex="1">
          <mxGeometry x="1300" y="280" width="40" height="30" as="geometry" />
        </mxCell>
        <mxCell id="SnCNMXQEFfx5Mpp39tnm-29" value="" style="endArrow=classic;html=1;rounded=0;exitX=0.324;exitY=1.027;exitDx=0;exitDy=0;exitPerimeter=0;entryX=1.008;entryY=0.807;entryDx=0;entryDy=0;entryPerimeter=0;" parent="1" source="SnCNMXQEFfx5Mpp39tnm-24" target="Qqp3Ts9HwSAfRc8SLj8j-10" edge="1">
          <mxGeometry width="50" height="50" relative="1" as="geometry">
            <mxPoint x="1160" y="394.83000000000004" as="sourcePoint" />
            <mxPoint x="1090" y="440" as="targetPoint" />
            <Array as="points">
              <mxPoint x="1262" y="440" />
            </Array>
          </mxGeometry>
        </mxCell>
        <mxCell id="SnCNMXQEFfx5Mpp39tnm-30" value="" style="endArrow=classic;html=1;rounded=0;entryX=-0.013;entryY=0.403;entryDx=0;entryDy=0;entryPerimeter=0;" parent="1" target="SnCNMXQEFfx5Mpp39tnm-19" edge="1">
          <mxGeometry width="50" height="50" relative="1" as="geometry">
            <mxPoint x="961.25" y="690" as="sourcePoint" />
            <mxPoint x="1011.25" y="640" as="targetPoint" />
          </mxGeometry>
        </mxCell>
        <mxCell id="SnCNMXQEFfx5Mpp39tnm-31" value="" style="endArrow=classic;html=1;rounded=0;entryX=0.729;entryY=1.024;entryDx=0;entryDy=0;entryPerimeter=0;" parent="1" target="Qqp3Ts9HwSAfRc8SLj8j-20" edge="1">
          <mxGeometry width="50" height="50" relative="1" as="geometry">
            <mxPoint x="1120" y="670" as="sourcePoint" />
            <mxPoint x="1170" y="620" as="targetPoint" />
            <Array as="points">
              <mxPoint x="1120" y="640" />
              <mxPoint x="950" y="640" />
            </Array>
          </mxGeometry>
        </mxCell>
        <mxCell id="SnCNMXQEFfx5Mpp39tnm-32" value="&lt;font style=&quot;font-size: 18px;&quot;&gt;Fails&lt;/font&gt;" style="text;html=1;align=center;verticalAlign=middle;whiteSpace=wrap;rounded=0;" parent="1" vertex="1">
          <mxGeometry x="1080" y="610" width="40" height="30" as="geometry" />
        </mxCell>
        <mxCell id="SnCNMXQEFfx5Mpp39tnm-34" value="" style="endArrow=classic;html=1;rounded=0;entryX=1.001;entryY=0.848;entryDx=0;entryDy=0;entryPerimeter=0;" parent="1" target="SnCNMXQEFfx5Mpp39tnm-19" edge="1">
          <mxGeometry width="50" height="50" relative="1" as="geometry">
            <mxPoint x="1310" y="680" as="sourcePoint" />
            <mxPoint x="1370" y="740" as="targetPoint" />
            <Array as="points">
              <mxPoint x="1360" y="680" />
              <mxPoint x="1360" y="712" />
            </Array>
          </mxGeometry>
        </mxCell>
        <mxCell id="SnCNMXQEFfx5Mpp39tnm-35" value="&lt;font style=&quot;font-size: 18px;&quot;&gt;Suceeds&lt;/font&gt;" style="text;html=1;align=center;verticalAlign=middle;whiteSpace=wrap;rounded=0;" parent="1" vertex="1">
          <mxGeometry x="1160" y="410" width="60" height="30" as="geometry" />
        </mxCell>
        <mxCell id="SnCNMXQEFfx5Mpp39tnm-36" value="&lt;font style=&quot;font-size: 17px;&quot;&gt;Logs out&lt;/font&gt;" style="rounded=1;whiteSpace=wrap;html=1;" parent="1" vertex="1">
          <mxGeometry x="290" y="330" width="192.5" height="50" as="geometry" />
        </mxCell>
        <mxCell id="SnCNMXQEFfx5Mpp39tnm-37" value="" style="endArrow=classic;html=1;rounded=0;entryX=0.728;entryY=1.057;entryDx=0;entryDy=0;entryPerimeter=0;" parent="1" edge="1">
          <mxGeometry width="50" height="50" relative="1" as="geometry">
            <mxPoint x="570" y="492" as="sourcePoint" />
            <mxPoint x="390.14" y="380" as="targetPoint" />
            <Array as="points">
              <mxPoint x="390" y="492.15" />
            </Array>
          </mxGeometry>
        </mxCell>
        <mxCell id="SnCNMXQEFfx5Mpp39tnm-38" value="" style="endArrow=classic;html=1;rounded=0;exitX=0.519;exitY=-0.032;exitDx=0;exitDy=0;exitPerimeter=0;" parent="1" source="SnCNMXQEFfx5Mpp39tnm-36" edge="1">
          <mxGeometry width="50" height="50" relative="1" as="geometry">
            <mxPoint x="430.25" y="424.5" as="sourcePoint" />
            <mxPoint x="580" y="240" as="targetPoint" />
            <Array as="points">
              <mxPoint x="390" y="240" />
            </Array>
          </mxGeometry>
        </mxCell>
        <mxCell id="RAIGJmh2x27qs6I3c7X0-1" value="" style="ellipse;whiteSpace=wrap;html=1;aspect=fixed;" parent="1" vertex="1">
          <mxGeometry x="657.51" y="1110" width="40" height="40" as="geometry" />
        </mxCell>
        <mxCell id="RAIGJmh2x27qs6I3c7X0-2" value="&lt;font style=&quot;font-size: 18px;&quot;&gt;End&lt;/font&gt;" style="text;html=1;align=center;verticalAlign=middle;whiteSpace=wrap;rounded=0;" parent="1" vertex="1">
          <mxGeometry x="697.51" y="1115" width="60" height="30" as="geometry" />
        </mxCell>
        <mxCell id="RAIGJmh2x27qs6I3c7X0-3" value="" style="endArrow=classic;html=1;rounded=0;entryX=0.5;entryY=0;entryDx=0;entryDy=0;exitX=0.5;exitY=1;exitDx=0;exitDy=0;" parent="1" source="SnCNMXQEFfx5Mpp39tnm-12" target="RAIGJmh2x27qs6I3c7X0-1" edge="1">
          <mxGeometry width="50" height="50" relative="1" as="geometry">
            <mxPoint x="650" y="1137" as="sourcePoint" />
            <mxPoint x="616" y="1100" as="targetPoint" />
          </mxGeometry>
        </mxCell>
        <mxCell id="gPEPTdAMiKp3LuIciWDf-2" value="&lt;font style=&quot;font-size: 17px;&quot;&gt;Clicks Home Button&lt;/font&gt;" style="rounded=1;whiteSpace=wrap;html=1;" vertex="1" parent="1">
          <mxGeometry x="410" y="640" width="161.25" height="40" as="geometry" />
        </mxCell>
        <mxCell id="gPEPTdAMiKp3LuIciWDf-3" value="" style="endArrow=classic;html=1;rounded=0;" edge="1" parent="1">
          <mxGeometry width="50" height="50" relative="1" as="geometry">
            <mxPoint x="670" y="660" as="sourcePoint" />
            <mxPoint x="570" y="660" as="targetPoint" />
          </mxGeometry>
        </mxCell>
        <mxCell id="gPEPTdAMiKp3LuIciWDf-4" value="" style="endArrow=classic;html=1;rounded=0;entryX=0;entryY=0.133;entryDx=0;entryDy=0;entryPerimeter=0;" edge="1" parent="1" target="Qqp3Ts9HwSAfRc8SLj8j-5">
          <mxGeometry width="50" height="50" relative="1" as="geometry">
            <mxPoint x="410" y="659.66" as="sourcePoint" />
            <mxPoint x="260" y="100" as="targetPoint" />
            <Array as="points">
              <mxPoint x="260" y="660" />
              <mxPoint x="260" y="227" />
            </Array>
          </mxGeometry>
        </mxCell>
      </root>
    </mxGraphModel>
  </diagram>
</mxfile>
